# xmcd CD database file
#
# Track frame offsets:
#	1379
#	3290
#	23278
#	40612
#	53792
#	69051
#	87737
#	100537
#	120379
#	141245
#
# Disc length: 2143 seconds
#
# Revision: 0
# Processed by: cddbd v1.5.2PL0 Copyright (c) Steve Scherf et al.
# Submitted via: CDex 1.51
#
DISCID=71084d0a
DTITLE=Slow Joe And The Ginger Accident - Let Me Be Gone
DYEAR=2017
DGENRE=Blues
TTITLE0=Tambde Roza
TTITLE1=Swing Your Love
TTITLE2=Temple, Mosk, Church
TTITLE3=My Sway
TTITLE4=I Was A Stooge
TTITLE5=Candy Sparkles
TTITLE6=Black Moon
TTITLE7=God Damn The Pusherman
TTITLE8=She Makes Love Like Crazy
TTITLE9=Silent Waves
EXTD=YEAR: 2017
EXTT0=
EXTT1=
EXTT2=
EXTT3=
EXTT4=
EXTT5=
EXTT6=
EXTT7=
EXTT8=
EXTT9=
PLAYORDER=
